<svg width="936" height="935" xmlns="http://www.w3.org/2000/svg" xmlns:xlink="http://www.w3.org/1999/xlink" xml:space="preserve" overflow="hidden"><defs><clipPath id="clip0"><rect x="919" y="831" width="936" height="935"/></clipPath><linearGradient x1="919.25" y1="830.75" x2="1854.75" y2="1766.25" gradientUnits="userSpaceOnUse" spreadMethod="reflect" id="fill1"><stop offset="0" stop-color="#0590D6"/><stop offset="0.3" stop-color="#0590D6"/><stop offset="1" stop-color="#002A60"/></linearGradient><linearGradient x1="324.803" y1="-0.000109783" x2="324.803" y2="649.606" gradientUnits="userSpaceOnUse" spreadMethod="reflect" id="fill2"><stop offset="0" stop-color="#E0DFDC"/><stop offset="0.0294118" stop-color="#E1E0DD"/><stop offset="0.0588235" stop-color="#E3E2DF"/><stop offset="0.0882353" stop-color="#E4E4E1"/><stop offset="0.117647" stop-color="#E6E5E3"/><stop offset="0.147059" stop-color="#E7E7E5"/><stop offset="0.176471" stop-color="#E9E8E6"/><stop offset="0.205882" stop-color="#EAEAE8"/><stop offset="0.235294" stop-color="#ECEBE9"/><stop offset="0.264706" stop-color="#EDEDEB"/><stop offset="0.294118" stop-color="#EEEEEC"/><stop offset="0.323529" stop-color="#F0EFEE"/><stop offset="0.352941" stop-color="#F1F0EF"/><stop offset="0.382353" stop-color="#F2F2F0"/><stop offset="0.411765" stop-color="#F3F3F2"/><stop offset="0.441176" stop-color="#F4F4F3"/><stop offset="0.470588" stop-color="#F5F5F4"/><stop offset="0.5" stop-color="#F6F6F5"/><stop offset="0.529412" stop-color="#F7F7F6"/><stop offset="0.558824" stop-color="#F8F8F7"/><stop offset="0.588235" stop-color="#F9F8F8"/><stop offset="0.617647" stop-color="#F9F9F9"/><stop offset="0.647059" stop-color="#FAFAFA"/><stop offset="0.676471" stop-color="#FBFBFA"/><stop offset="0.705882" stop-color="#FBFBFB"/><stop offset="0.735294" stop-color="#FCFCFC"/><stop offset="0.764706" stop-color="#FCFCFC"/><stop offset="0.794118" stop-color="#FDFDFD"/><stop offset="0.823529" stop-color="#FDFDFD"/><stop offset="0.852941" stop-color="#FEFEFE"/><stop offset="0.882353" stop-color="#FEFEFE"/><stop offset="0.911765" stop-color="#FEFEFE"/><stop offset="0.941176" stop-color="#FEFEFE"/><stop offset="0.970588" stop-color="#FEFEFE"/><stop offset="1" stop-color="#FFFFFF"/></linearGradient></defs><g clip-path="url(#clip0)" transform="translate(-919 -831)"><rect x="919" y="831" width="936" height="935" fill="url(#fill1)"/><path d="M64.478 351.607C55.744 360.341 41.5833 360.341 32.8493 351.607 24.1151 342.873 24.1151 328.712 32.8493 319.978L179.626 173.201C188.36 164.467 202.521 164.467 211.255 173.201 219.989 181.935 219.989 196.096 211.255 204.83ZM352.264 64.8855C343.599 73.5508 329.549 73.5508 320.884 64.8855 312.219 56.2204 312.219 42.171 320.884 33.5057 329.549 24.8406 343.599 24.8406 352.264 33.5057 360.929 42.171 360.929 56.2204 352.264 64.8855ZM347.388 444.548 400.016 249.591 205.059 302.218ZM289.272 579.9C281.504 587.668 268.91 587.668 261.142 579.9L73.7154 392.474C65.9475 384.705 65.9475 372.111 73.7154 364.343L364.343 73.7154C372.111 65.9473 384.705 65.9473 392.473 73.7154L579.9 261.142C587.668 268.91 587.668 281.504 579.9 289.272ZM429.944 649.606 429.944 649.606 429.944 649.606ZM449.049 641.693C453.938 636.804 456.962 630.049 456.962 622.588L456.962 483.98 455.875 478.593 478.356 456.112 483.98 456.962 622.588 456.963C630.049 456.962 636.803 453.938 641.693 449.049 646.582 444.16 649.606 437.405 649.606 429.944L649.606 429.944C649.606 415.023 637.51 402.926 622.588 402.926L531.542 402.926 615.517 318.952C642.028 292.44 642.028 249.456 615.517 222.945L412.455 19.8836C385.944-6.62802 342.96-6.62802 316.448 19.8836L19.8836 316.449C-6.62802 342.96-6.62802 385.944 19.8836 412.455L222.945 615.517C249.456 642.028 292.44 642.028 318.952 615.517L402.926 531.542 402.926 622.588C402.926 633.779 409.73 643.382 419.428 647.483L429.944 649.606 440.461 647.483C443.693 646.116 446.604 644.138 449.049 641.693Z" fill="url(#fill2)" fill-rule="evenodd" transform="matrix(0.707107 -0.707107 -0.707107 -0.707107 1386.84 1779.8)"/></g></svg>